<svg xmlns="http://www.w3.org/2000/svg" width="1024" height="1024" viewBox="0 0 1024 1024">
  <!-- dart-pdf mark. The same artwork doubles as the app icon: render
       with the square background (icon-1024.png) for icon generators,
       which apply their own platform masks. -->
  <defs>
    <linearGradient id="bg" x1="0" y1="0" x2="1" y2="1">
      <stop offset="0" stop-color="#16BAFD"/>
      <stop offset="1" stop-color="#0169B4"/>
    </linearGradient>
    <linearGradient id="ink" x1="0" y1="0" x2="1" y2="0">
      <stop offset="0" stop-color="#0175C2"/>
      <stop offset="1" stop-color="#13B9FD"/>
    </linearGradient>
    <filter id="drop" x="-30%" y="-30%" width="160%" height="160%">
      <feGaussianBlur in="SourceAlpha" stdDeviation="18"/>
      <feOffset dy="16"/>
      <feComponentTransfer><feFuncA type="linear" slope="0.35"/></feComponentTransfer>
      <feMerge><feMergeNode/></feMerge>
    </filter>
  </defs>

  <rect width="1024" height="1024" rx="224" fill="url(#bg)"/>

  <!-- page with a folded top-right corner -->
  <g filter="url(#drop)">
    <path d="M 304 192 H 612 L 752 332 V 800 Q 752 832 720 832 H 304 Q 272 832 272 800 V 224 Q 272 192 304 192 Z"
          fill="#FFFFFF"/>
  </g>
  <path d="M 304 192 H 612 L 752 332 V 800 Q 752 832 720 832 H 304 Q 272 832 272 800 V 224 Q 272 192 304 192 Z"
        fill="#FFFFFF"/>
  <!-- the fold flap -->
  <path d="M 612 192 L 752 332 H 646 Q 612 332 612 298 Z" fill="#C6E3F8"/>

  <!-- heading line -->
  <rect x="332" y="396" width="216" height="34" rx="17" fill="#8FA6B5"/>
  <!-- highlighted line -->
  <rect x="332" y="478" width="384" height="40" rx="20" fill="#FFC93C"/>
  <!-- body line -->
  <rect x="332" y="566" width="340" height="32" rx="16" fill="#C4D2DC"/>

  <!-- ink stroke: the signature/ink tool -->
  <path d="M 330 748 C 384 642 462 642 506 716 C 542 776 584 772 618 718 C 646 674 686 690 702 712"
        fill="none" stroke="url(#ink)" stroke-width="32" stroke-linecap="round"/>
</svg>
